<svg width="29" height="29" viewBox="0 0 29 29" fill="none" xmlns="http://www.w3.org/2000/svg">
<g filter="url(#filter0_d_113_254)">
<rect x="1" width="27" height="27" rx="13.5" fill="#214A73"/>
</g>
<path d="M14.4999 6.0968C13.0357 6.0968 11.6044 6.53099 10.3869 7.34447C9.16944 8.15795 8.22055 9.31417 7.66022 10.6669C7.09989 12.0197 6.95328 13.5082 7.23893 14.9443C7.52459 16.3804 8.22968 17.6995 9.26504 18.7349C10.3004 19.7703 11.6195 20.4753 13.0556 20.761C14.4917 21.0467 15.9802 20.9 17.333 20.3397C18.6858 19.7794 19.842 18.8305 20.6555 17.613C21.4689 16.3956 21.9031 14.9642 21.9031 13.5C21.9031 12.5278 21.7116 11.5651 21.3396 10.6669C20.9675 9.76873 20.4222 8.95261 19.7348 8.26516C19.0473 7.5777 18.2312 7.03239 17.333 6.66034C16.4348 6.28829 15.4721 6.0968 14.4999 6.0968ZM14.4999 19.4226C13.3285 19.4226 12.1835 19.0753 11.2095 18.4245C10.2355 17.7737 9.47642 16.8487 9.02816 15.7665C8.57989 14.6843 8.4626 13.4935 8.69113 12.3446C8.91965 11.1957 9.48372 10.1404 10.312 9.31213C11.1403 8.48384 12.1956 7.91977 13.3445 7.69125C14.4933 7.46272 15.6842 7.58001 16.7664 8.02828C17.8486 8.47654 18.7736 9.23565 19.4244 10.2096C20.0751 11.1836 20.4225 12.3287 20.4225 13.5C20.4225 15.0708 19.7985 16.5772 18.6878 17.6879C17.5771 18.7986 16.0707 19.4226 14.4999 19.4226ZM17.4612 12.7597H15.2402V10.5387C15.2402 10.3424 15.1622 10.1541 15.0234 10.0152C14.8846 9.87641 14.6963 9.79841 14.4999 9.79841C14.3036 9.79841 14.1153 9.87641 13.9764 10.0152C13.8376 10.1541 13.7596 10.3424 13.7596 10.5387V12.7597H11.5386C11.3423 12.7597 11.154 12.8377 11.0151 12.9765C10.8763 13.1154 10.7983 13.3037 10.7983 13.5C10.7983 13.6964 10.8763 13.8847 11.0151 14.0235C11.154 14.1624 11.3423 14.2403 11.5386 14.2403H13.7596V16.4613C13.7596 16.6577 13.8376 16.846 13.9764 16.9848C14.1153 17.1236 14.3036 17.2016 14.4999 17.2016C14.6963 17.2016 14.8846 17.1236 15.0234 16.9848C15.1622 16.846 15.2402 16.6577 15.2402 16.4613V14.2403H17.4612C17.6575 14.2403 17.8458 14.1624 17.9847 14.0235C18.1235 13.8847 18.2015 13.6964 18.2015 13.5C18.2015 13.3037 18.1235 13.1154 17.9847 12.9765C17.8458 12.8377 17.6575 12.7597 17.4612 12.7597Z" fill="#FFBA35"/>
<defs>
<filter id="filter0_d_113_254" x="0" y="0" width="29" height="29" filterUnits="userSpaceOnUse" color-interpolation-filters="sRGB">
<feFlood flood-opacity="0" result="BackgroundImageFix"/>
<feColorMatrix in="SourceAlpha" type="matrix" values="0 0 0 0 0 0 0 0 0 0 0 0 0 0 0 0 0 0 127 0" result="hardAlpha"/>
<feOffset dy="1"/>
<feGaussianBlur stdDeviation="0.5"/>
<feComposite in2="hardAlpha" operator="out"/>
<feColorMatrix type="matrix" values="0 0 0 0 0 0 0 0 0 0 0 0 0 0 0 0 0 0 0.16 0"/>
<feBlend mode="normal" in2="BackgroundImageFix" result="effect1_dropShadow_113_254"/>
<feBlend mode="normal" in="SourceGraphic" in2="effect1_dropShadow_113_254" result="shape"/>
</filter>
</defs>
</svg>
