<svg width="35" height="35" viewBox="0 0 35 35" fill="none" xmlns="http://www.w3.org/2000/svg">
<g filter="url(#filter0_d_113_254)">
<rect x="4" width="27" height="27" rx="13.5" fill="#214A73"/>
</g>
<path d="M17.4999 6.0968C16.0357 6.0968 14.6044 6.53099 13.3869 7.34447C12.1694 8.15795 11.2206 9.31417 10.6602 10.6669C10.0999 12.0197 9.95328 13.5082 10.2389 14.9443C10.5246 16.3804 11.2297 17.6995 12.265 18.7349C13.3004 19.7703 14.6195 20.4753 16.0556 20.761C17.4917 21.0467 18.9802 20.9 20.333 20.3397C21.6858 19.7794 22.842 18.8305 23.6555 17.613C24.4689 16.3956 24.9031 14.9642 24.9031 13.5C24.9031 12.5278 24.7116 11.5651 24.3396 10.6669C23.9675 9.76873 23.4222 8.95261 22.7348 8.26516C22.0473 7.5777 21.2312 7.03239 20.333 6.66034C19.4348 6.28829 18.4721 6.0968 17.4999 6.0968ZM17.4999 19.4226C16.3285 19.4226 15.1835 19.0753 14.2095 18.4245C13.2355 17.7737 12.4764 16.8487 12.0282 15.7665C11.5799 14.6843 11.4626 13.4935 11.6911 12.3446C11.9197 11.1957 12.4837 10.1404 13.312 9.31213C14.1403 8.48384 15.1956 7.91977 16.3445 7.69125C17.4933 7.46272 18.6842 7.58001 19.7664 8.02828C20.8486 8.47654 21.7736 9.23565 22.4244 10.2096C23.0751 11.1836 23.4225 12.3287 23.4225 13.5C23.4225 15.0708 22.7985 16.5772 21.6878 17.6879C20.5771 18.7986 19.0707 19.4226 17.4999 19.4226ZM20.4612 12.7597H18.2402V10.5387C18.2402 10.3424 18.1622 10.1541 18.0234 10.0152C17.8846 9.87641 17.6963 9.79841 17.4999 9.79841C17.3036 9.79841 17.1153 9.87641 16.9764 10.0152C16.8376 10.1541 16.7596 10.3424 16.7596 10.5387V12.7597H14.5386C14.3423 12.7597 14.154 12.8377 14.0151 12.9765C13.8763 13.1154 13.7983 13.3037 13.7983 13.5C13.7983 13.6964 13.8763 13.8847 14.0151 14.0235C14.154 14.1624 14.3423 14.2403 14.5386 14.2403H16.7596V16.4613C16.7596 16.6577 16.8376 16.846 16.9764 16.9848C17.1153 17.1236 17.3036 17.2016 17.4999 17.2016C17.6963 17.2016 17.8846 17.1236 18.0234 16.9848C18.1622 16.846 18.2402 16.6577 18.2402 16.4613V14.2403H20.4612C20.6575 14.2403 20.8458 14.1624 20.9847 14.0235C21.1235 13.8847 21.2015 13.6964 21.2015 13.5C21.2015 13.3037 21.1235 13.1154 20.9847 12.9765C20.8458 12.8377 20.6575 12.7597 20.4612 12.7597Z" fill="#FFBA35"/>
<defs>
<filter id="filter0_d_113_254" x="0" y="0" width="35" height="35" filterUnits="userSpaceOnUse" color-interpolation-filters="sRGB">
<feFlood flood-opacity="0" result="BackgroundImageFix"/>
<feColorMatrix in="SourceAlpha" type="matrix" values="0 0 0 0 0 0 0 0 0 0 0 0 0 0 0 0 0 0 127 0" result="hardAlpha"/>
<feOffset dy="4"/>
<feGaussianBlur stdDeviation="2"/>
<feComposite in2="hardAlpha" operator="out"/>
<feColorMatrix type="matrix" values="0 0 0 0 0 0 0 0 0 0 0 0 0 0 0 0 0 0 0.16 0"/>
<feBlend mode="normal" in2="BackgroundImageFix" result="effect1_dropShadow_113_254"/>
<feBlend mode="normal" in="SourceGraphic" in2="effect1_dropShadow_113_254" result="shape"/>
</filter>
</defs>
</svg>
