<svg width="29" height="29" viewBox="0 0 29 29" fill="none" xmlns="http://www.w3.org/2000/svg">
<g filter="url(#filter0_d_130_428)">
<rect x="1" width="27" height="27" rx="6" fill="#214A73"/>
</g>
<path d="M15.1875 14.4H12.4375C12.2552 14.4 12.0803 14.4738 11.9514 14.605C11.8224 14.7363 11.75 14.9143 11.75 15.1C11.75 15.2857 11.8224 15.4637 11.9514 15.595C12.0803 15.7263 12.2552 15.8 12.4375 15.8H15.1875C15.3698 15.8 15.5447 15.7263 15.6736 15.595C15.8026 15.4637 15.875 15.2857 15.875 15.1C15.875 14.9143 15.8026 14.7363 15.6736 14.605C15.5447 14.4738 15.3698 14.4 15.1875 14.4ZM17.9375 7.4H17.1263C16.9844 6.99152 16.722 6.6377 16.3749 6.38706C16.0278 6.13641 15.613 6.00122 15.1875 6H13.8125C13.387 6.00122 12.9722 6.13641 12.6251 6.38706C12.278 6.6377 12.0156 6.99152 11.8738 7.4H11.0625C10.5155 7.4 9.99089 7.62125 9.60409 8.01508C9.2173 8.4089 9 8.94305 9 9.5V17.9C9 18.457 9.2173 18.9911 9.60409 19.3849C9.99089 19.7788 10.5155 20 11.0625 20H17.9375C18.4845 20 19.0091 19.7788 19.3959 19.3849C19.7827 18.9911 20 18.457 20 17.9V9.5C20 8.94305 19.7827 8.4089 19.3959 8.01508C19.0091 7.62125 18.4845 7.4 17.9375 7.4ZM13.125 8.1C13.125 7.91435 13.1974 7.7363 13.3264 7.60503C13.4553 7.47375 13.6302 7.4 13.8125 7.4H15.1875C15.3698 7.4 15.5447 7.47375 15.6736 7.60503C15.8026 7.7363 15.875 7.91435 15.875 8.1V8.8H13.125V8.1ZM18.625 17.9C18.625 18.0857 18.5526 18.2637 18.4236 18.395C18.2947 18.5263 18.1198 18.6 17.9375 18.6H11.0625C10.8802 18.6 10.7053 18.5263 10.5764 18.395C10.4474 18.2637 10.375 18.0857 10.375 17.9V9.5C10.375 9.31435 10.4474 9.1363 10.5764 9.00503C10.7053 8.87375 10.8802 8.8 11.0625 8.8H11.75V9.5C11.75 9.68565 11.8224 9.8637 11.9514 9.99497C12.0803 10.1263 12.2552 10.2 12.4375 10.2H16.5625C16.7448 10.2 16.9197 10.1263 17.0486 9.99497C17.1776 9.8637 17.25 9.68565 17.25 9.5V8.8H17.9375C18.1198 8.8 18.2947 8.87375 18.4236 9.00503C18.5526 9.1363 18.625 9.31435 18.625 9.5V17.9ZM16.5625 11.6H12.4375C12.2552 11.6 12.0803 11.6738 11.9514 11.805C11.8224 11.9363 11.75 12.1143 11.75 12.3C11.75 12.4857 11.8224 12.6637 11.9514 12.795C12.0803 12.9263 12.2552 13 12.4375 13H16.5625C16.7448 13 16.9197 12.9263 17.0486 12.795C17.1776 12.6637 17.25 12.4857 17.25 12.3C17.25 12.1143 17.1776 11.9363 17.0486 11.805C16.9197 11.6738 16.7448 11.6 16.5625 11.6Z" fill="#FFBA35"/>
<defs>
<filter id="filter0_d_130_428" x="0" y="0" width="29" height="29" filterUnits="userSpaceOnUse" color-interpolation-filters="sRGB">
<feFlood flood-opacity="0" result="BackgroundImageFix"/>
<feColorMatrix in="SourceAlpha" type="matrix" values="0 0 0 0 0 0 0 0 0 0 0 0 0 0 0 0 0 0 127 0" result="hardAlpha"/>
<feOffset dy="1"/>
<feGaussianBlur stdDeviation="0.5"/>
<feComposite in2="hardAlpha" operator="out"/>
<feColorMatrix type="matrix" values="0 0 0 0 0 0 0 0 0 0 0 0 0 0 0 0 0 0 0.25 0"/>
<feBlend mode="normal" in2="BackgroundImageFix" result="effect1_dropShadow_130_428"/>
<feBlend mode="normal" in="SourceGraphic" in2="effect1_dropShadow_130_428" result="shape"/>
</filter>
</defs>
</svg>
