<svg width="29" height="29" viewBox="0 0 29 29" fill="none" xmlns="http://www.w3.org/2000/svg">
<g filter="url(#filter0_d_130_570)">
<rect x="1" width="27" height="27" rx="6" fill="#214A73"/>
</g>
<path d="M13.0556 17.4C13.2471 17.4 13.4308 17.3315 13.5662 17.2096C13.7017 17.0877 13.7778 16.9224 13.7778 16.75V12.85C13.7778 12.6776 13.7017 12.5123 13.5662 12.3904C13.4308 12.2685 13.2471 12.2 13.0556 12.2C12.864 12.2 12.6803 12.2685 12.5449 12.3904C12.4094 12.5123 12.3333 12.6776 12.3333 12.85V16.75C12.3333 16.9224 12.4094 17.0877 12.5449 17.2096C12.6803 17.3315 12.864 17.4 13.0556 17.4ZM20.2778 9.6H17.3889V8.95C17.3889 8.43283 17.1606 7.93684 16.7543 7.57114C16.348 7.20545 15.7969 7 15.2222 7H13.7778C13.2031 7 12.652 7.20545 12.2457 7.57114C11.8394 7.93684 11.6111 8.43283 11.6111 8.95V9.6H8.72222C8.53068 9.6 8.34698 9.66848 8.21153 9.79038C8.07609 9.91228 8 10.0776 8 10.25C8 10.4224 8.07609 10.5877 8.21153 10.7096C8.34698 10.8315 8.53068 10.9 8.72222 10.9H9.44444V18.05C9.44444 18.5672 9.67272 19.0632 10.079 19.4289C10.4854 19.7946 11.0365 20 11.6111 20H17.3889C17.9635 20 18.5146 19.7946 18.921 19.4289C19.3273 19.0632 19.5556 18.5672 19.5556 18.05V10.9H20.2778C20.4693 10.9 20.653 10.8315 20.7885 10.7096C20.9239 10.5877 21 10.4224 21 10.25C21 10.0776 20.9239 9.91228 20.7885 9.79038C20.653 9.66848 20.4693 9.6 20.2778 9.6ZM13.0556 8.95C13.0556 8.77761 13.1316 8.61228 13.2671 8.49038C13.4025 8.36848 13.5862 8.3 13.7778 8.3H15.2222C15.4138 8.3 15.5975 8.36848 15.7329 8.49038C15.8684 8.61228 15.9444 8.77761 15.9444 8.95V9.6H13.0556V8.95ZM18.1111 18.05C18.1111 18.2224 18.035 18.3877 17.8996 18.5096C17.7641 18.6315 17.5804 18.7 17.3889 18.7H11.6111C11.4196 18.7 11.2359 18.6315 11.1004 18.5096C10.965 18.3877 10.8889 18.2224 10.8889 18.05V10.9H18.1111V18.05ZM15.9444 17.4C16.136 17.4 16.3197 17.3315 16.4551 17.2096C16.5906 17.0877 16.6667 16.9224 16.6667 16.75V12.85C16.6667 12.6776 16.5906 12.5123 16.4551 12.3904C16.3197 12.2685 16.136 12.2 15.9444 12.2C15.7529 12.2 15.5692 12.2685 15.4338 12.3904C15.2983 12.5123 15.2222 12.6776 15.2222 12.85V16.75C15.2222 16.9224 15.2983 17.0877 15.4338 17.2096C15.5692 17.3315 15.7529 17.4 15.9444 17.4Z" fill="#FFBA35"/>
<defs>
<filter id="filter0_d_130_570" x="0" y="0" width="29" height="29" filterUnits="userSpaceOnUse" color-interpolation-filters="sRGB">
<feFlood flood-opacity="0" result="BackgroundImageFix"/>
<feColorMatrix in="SourceAlpha" type="matrix" values="0 0 0 0 0 0 0 0 0 0 0 0 0 0 0 0 0 0 127 0" result="hardAlpha"/>
<feOffset dy="1"/>
<feGaussianBlur stdDeviation="0.5"/>
<feComposite in2="hardAlpha" operator="out"/>
<feColorMatrix type="matrix" values="0 0 0 0 0 0 0 0 0 0 0 0 0 0 0 0 0 0 0.25 0"/>
<feBlend mode="normal" in2="BackgroundImageFix" result="effect1_dropShadow_130_570"/>
<feBlend mode="normal" in="SourceGraphic" in2="effect1_dropShadow_130_570" result="shape"/>
</filter>
</defs>
</svg>
