<svg width="31" height="31" viewBox="0 0 31 31" fill="none" xmlns="http://www.w3.org/2000/svg">
<g filter="url(#filter0_d_110_132)">
<rect x="2" width="27" height="27" rx="13.5" fill="#214A73"/>
</g>
<path d="M14.0556 17.4C14.2471 17.4 14.4308 17.3315 14.5662 17.2096C14.7017 17.0877 14.7778 16.9224 14.7778 16.75V12.85C14.7778 12.6776 14.7017 12.5123 14.5662 12.3904C14.4308 12.2685 14.2471 12.2 14.0556 12.2C13.864 12.2 13.6803 12.2685 13.5449 12.3904C13.4094 12.5123 13.3333 12.6776 13.3333 12.85V16.75C13.3333 16.9224 13.4094 17.0877 13.5449 17.2096C13.6803 17.3315 13.864 17.4 14.0556 17.4ZM21.2778 9.6H18.3889V8.95C18.3889 8.43283 18.1606 7.93684 17.7543 7.57114C17.348 7.20545 16.7969 7 16.2222 7H14.7778C14.2031 7 13.652 7.20545 13.2457 7.57114C12.8394 7.93684 12.6111 8.43283 12.6111 8.95V9.6H9.72222C9.53068 9.6 9.34698 9.66848 9.21153 9.79038C9.07609 9.91228 9 10.0776 9 10.25C9 10.4224 9.07609 10.5877 9.21153 10.7096C9.34698 10.8315 9.53068 10.9 9.72222 10.9H10.4444V18.05C10.4444 18.5672 10.6727 19.0632 11.079 19.4289C11.4854 19.7946 12.0365 20 12.6111 20H18.3889C18.9635 20 19.5146 19.7946 19.921 19.4289C20.3273 19.0632 20.5556 18.5672 20.5556 18.05V10.9H21.2778C21.4693 10.9 21.653 10.8315 21.7885 10.7096C21.9239 10.5877 22 10.4224 22 10.25C22 10.0776 21.9239 9.91228 21.7885 9.79038C21.653 9.66848 21.4693 9.6 21.2778 9.6ZM14.0556 8.95C14.0556 8.77761 14.1316 8.61228 14.2671 8.49038C14.4025 8.36848 14.5862 8.3 14.7778 8.3H16.2222C16.4138 8.3 16.5975 8.36848 16.7329 8.49038C16.8684 8.61228 16.9444 8.77761 16.9444 8.95V9.6H14.0556V8.95ZM19.1111 18.05C19.1111 18.2224 19.035 18.3877 18.8996 18.5096C18.7641 18.6315 18.5804 18.7 18.3889 18.7H12.6111C12.4196 18.7 12.2359 18.6315 12.1004 18.5096C11.965 18.3877 11.8889 18.2224 11.8889 18.05V10.9H19.1111V18.05ZM16.9444 17.4C17.136 17.4 17.3197 17.3315 17.4551 17.2096C17.5906 17.0877 17.6667 16.9224 17.6667 16.75V12.85C17.6667 12.6776 17.5906 12.5123 17.4551 12.3904C17.3197 12.2685 17.136 12.2 16.9444 12.2C16.7529 12.2 16.5692 12.2685 16.4338 12.3904C16.2983 12.5123 16.2222 12.6776 16.2222 12.85V16.75C16.2222 16.9224 16.2983 17.0877 16.4338 17.2096C16.5692 17.3315 16.7529 17.4 16.9444 17.4Z" fill="#FFBA35"/>
<defs>
<filter id="filter0_d_110_132" x="0" y="0" width="31" height="31" filterUnits="userSpaceOnUse" color-interpolation-filters="sRGB">
<feFlood flood-opacity="0" result="BackgroundImageFix"/>
<feColorMatrix in="SourceAlpha" type="matrix" values="0 0 0 0 0 0 0 0 0 0 0 0 0 0 0 0 0 0 127 0" result="hardAlpha"/>
<feOffset dy="2"/>
<feGaussianBlur stdDeviation="1"/>
<feComposite in2="hardAlpha" operator="out"/>
<feColorMatrix type="matrix" values="0 0 0 0 0 0 0 0 0 0 0 0 0 0 0 0 0 0 0.16 0"/>
<feBlend mode="normal" in2="BackgroundImageFix" result="effect1_dropShadow_110_132"/>
<feBlend mode="normal" in="SourceGraphic" in2="effect1_dropShadow_110_132" result="shape"/>
</filter>
</defs>
</svg>
