<svg width="29" height="29" viewBox="0 0 29 29" fill="none" xmlns="http://www.w3.org/2000/svg">
<g filter="url(#filter0_d_124_261)">
<rect x="1" width="27" height="27" rx="13.5" fill="#214A73"/>
</g>
<path d="M23 9.93001C23.0006 9.83131 22.9817 9.73346 22.9443 9.64208C22.907 9.5507 22.852 9.46759 22.7825 9.39751L19.6025 6.21751C19.5324 6.148 19.4493 6.09301 19.3579 6.05568C19.2666 6.01836 19.1687 5.99944 19.07 6.00001C18.9713 5.99944 18.8735 6.01836 18.7821 6.05568C18.6907 6.09301 18.6076 6.148 18.5375 6.21751L16.415 8.34001L8.21751 16.5375C8.148 16.6076 8.09301 16.6907 8.05568 16.7821C8.01836 16.8735 7.99944 16.9713 8.00001 17.07V20.25C8.00001 20.4489 8.07903 20.6397 8.21968 20.7803C8.36033 20.921 8.5511 21 8.75001 21H11.93C12.035 21.0057 12.1399 20.9893 12.2381 20.9518C12.3363 20.9144 12.4255 20.8567 12.5 20.7825L20.6525 12.585L22.7825 10.5C22.851 10.4273 22.9067 10.3437 22.9475 10.2525C22.9547 10.1927 22.9547 10.1323 22.9475 10.0725C22.951 10.0376 22.951 10.0024 22.9475 9.96751L23 9.93001ZM11.6225 19.5H9.50001V17.3775L16.9475 9.93001L19.07 12.0525L11.6225 19.5ZM20.1275 10.995L18.005 8.87251L19.07 7.81501L21.185 9.93001L20.1275 10.995Z" fill="#FFBA35"/>
<defs>
<filter id="filter0_d_124_261" x="0" y="0" width="29" height="29" filterUnits="userSpaceOnUse" color-interpolation-filters="sRGB">
<feFlood flood-opacity="0" result="BackgroundImageFix"/>
<feColorMatrix in="SourceAlpha" type="matrix" values="0 0 0 0 0 0 0 0 0 0 0 0 0 0 0 0 0 0 127 0" result="hardAlpha"/>
<feOffset dy="1"/>
<feGaussianBlur stdDeviation="0.5"/>
<feComposite in2="hardAlpha" operator="out"/>
<feColorMatrix type="matrix" values="0 0 0 0 0 0 0 0 0 0 0 0 0 0 0 0 0 0 0.16 0"/>
<feBlend mode="normal" in2="BackgroundImageFix" result="effect1_dropShadow_124_261"/>
<feBlend mode="normal" in="SourceGraphic" in2="effect1_dropShadow_124_261" result="shape"/>
</filter>
</defs>
</svg>
