<svg width="29" height="29" viewBox="0 0 29 29" fill="none" xmlns="http://www.w3.org/2000/svg">
<g filter="url(#filter0_d_129_425)">
<rect x="1" width="27" height="27" rx="6" fill="#214A73"/>
</g>
<path d="M20.3464 13.5019C20.1741 13.5019 20.0088 13.5703 19.8869 13.6922C19.7651 13.8141 19.6966 13.9794 19.6966 14.1517V18.0506C19.6966 18.2229 19.6281 18.3882 19.5063 18.5101C19.3844 18.6319 19.2191 18.7004 19.0468 18.7004H9.94943C9.77709 18.7004 9.61181 18.6319 9.48995 18.5101C9.36809 18.3882 9.29962 18.2229 9.29962 18.0506V8.9532C9.29962 8.78086 9.36809 8.61558 9.48995 8.49372C9.61181 8.37185 9.77709 8.30339 9.94943 8.30339H13.8483C14.0206 8.30339 14.1859 8.23493 14.3078 8.11307C14.4297 7.9912 14.4981 7.82592 14.4981 7.65358C14.4981 7.48124 14.4297 7.31596 14.3078 7.19409C14.1859 7.07223 14.0206 7.00377 13.8483 7.00377H9.94943C9.43241 7.00377 8.93657 7.20915 8.57098 7.57474C8.20539 7.94033 8 8.43618 8 8.9532V18.0506C8 18.5676 8.20539 19.0634 8.57098 19.429C8.93657 19.7946 9.43241 20 9.94943 20H19.0468C19.5638 20 20.0597 19.7946 20.4253 19.429C20.7908 19.0634 20.9962 18.5676 20.9962 18.0506V14.1517C20.9962 13.9794 20.9278 13.8141 20.8059 13.6922C20.684 13.5703 20.5188 13.5019 20.3464 13.5019ZM10.5992 13.9957V16.7509C10.5992 16.9233 10.6677 17.0886 10.7896 17.2104C10.9114 17.3323 11.0767 17.4008 11.2491 17.4008H14.0043C14.0898 17.4012 14.1746 17.3849 14.2537 17.3525C14.3329 17.3202 14.4049 17.2725 14.4656 17.2123L18.9623 12.7091L20.8078 10.9026C20.8687 10.8422 20.917 10.7704 20.95 10.6912C20.983 10.612 21 10.5271 21 10.4413C21 10.3555 20.983 10.2706 20.95 10.1914C20.917 10.1122 20.8687 10.0403 20.8078 9.9799L18.0526 7.19221C17.9922 7.13131 17.9203 7.08297 17.8411 7.04998C17.7619 7.01698 17.677 7 17.5912 7C17.5054 7 17.4205 7.01698 17.3413 7.04998C17.2621 7.08297 17.1903 7.13131 17.1299 7.19221L15.2974 9.03118L10.7877 13.5344C10.7275 13.5951 10.6798 13.6671 10.6475 13.7463C10.6151 13.8254 10.5988 13.9102 10.5992 13.9957ZM17.5912 8.56981L19.4302 10.4088L18.5075 11.3315L16.6685 9.49255L17.5912 8.56981ZM11.8989 14.2622L15.7523 10.4088L17.5912 12.2477L13.7378 16.1011H11.8989V14.2622Z" fill="#FFBA35"/>
<defs>
<filter id="filter0_d_129_425" x="0" y="0" width="29" height="29" filterUnits="userSpaceOnUse" color-interpolation-filters="sRGB">
<feFlood flood-opacity="0" result="BackgroundImageFix"/>
<feColorMatrix in="SourceAlpha" type="matrix" values="0 0 0 0 0 0 0 0 0 0 0 0 0 0 0 0 0 0 127 0" result="hardAlpha"/>
<feOffset dy="1"/>
<feGaussianBlur stdDeviation="0.5"/>
<feComposite in2="hardAlpha" operator="out"/>
<feColorMatrix type="matrix" values="0 0 0 0 0 0 0 0 0 0 0 0 0 0 0 0 0 0 0.25 0"/>
<feBlend mode="normal" in2="BackgroundImageFix" result="effect1_dropShadow_129_425"/>
<feBlend mode="normal" in="SourceGraphic" in2="effect1_dropShadow_129_425" result="shape"/>
</filter>
</defs>
</svg>
