<svg width="29" height="29" viewBox="0 0 29 29" fill="none" xmlns="http://www.w3.org/2000/svg">
<g filter="url(#filter0_d_124_261)">
<rect x="1" width="27" height="27" rx="13.5" fill="#214A73"/>
</g>
<path d="M21 10.4058C21.0005 10.3202 20.9841 10.2354 20.9517 10.1562C20.9194 10.077 20.8717 10.005 20.8115 9.94429L18.0555 7.1885C17.9948 7.12826 17.9227 7.0806 17.8435 7.04826C17.7643 7.01591 17.6795 6.99952 17.594 7.00001C17.5085 6.99952 17.4237 7.01591 17.3445 7.04826C17.2653 7.0806 17.1932 7.12826 17.1325 7.1885L15.293 9.02786L8.18851 16.1318C8.12827 16.1926 8.08061 16.2646 8.04826 16.3438C8.01591 16.423 7.99952 16.5078 8.00001 16.5933V19.3491C8.00001 19.5215 8.06849 19.6868 8.19039 19.8087C8.31229 19.9306 8.47762 19.999 8.65001 19.999H11.406C11.497 20.004 11.5879 19.9898 11.673 19.9573C11.7581 19.9248 11.8355 19.8748 11.9 19.8106L18.9655 12.7066L20.8115 10.8997C20.8708 10.8367 20.9192 10.7642 20.9545 10.6852C20.9608 10.6334 20.9608 10.5811 20.9545 10.5292C20.9575 10.499 20.9575 10.4685 20.9545 10.4383L21 10.4058ZM11.1395 18.6991H9.30001V16.8598L15.7545 10.4058L17.594 12.2451L11.1395 18.6991ZM18.5105 11.3287L16.671 9.48932L17.594 8.57289L19.427 10.4058L18.5105 11.3287Z" fill="#FFBA35"/>
<defs>
<filter id="filter0_d_124_261" x="0" y="0" width="29" height="29" filterUnits="userSpaceOnUse" color-interpolation-filters="sRGB">
<feFlood flood-opacity="0" result="BackgroundImageFix"/>
<feColorMatrix in="SourceAlpha" type="matrix" values="0 0 0 0 0 0 0 0 0 0 0 0 0 0 0 0 0 0 127 0" result="hardAlpha"/>
<feOffset dy="1"/>
<feGaussianBlur stdDeviation="0.5"/>
<feComposite in2="hardAlpha" operator="out"/>
<feColorMatrix type="matrix" values="0 0 0 0 0 0 0 0 0 0 0 0 0 0 0 0 0 0 0.16 0"/>
<feBlend mode="normal" in2="BackgroundImageFix" result="effect1_dropShadow_124_261"/>
<feBlend mode="normal" in="SourceGraphic" in2="effect1_dropShadow_124_261" result="shape"/>
</filter>
</defs>
</svg>
